<mxfile host="app.diagrams.net" modified="2021-03-09T05:44:25.113Z" agent="5.0 (Windows NT 10.0; WOW64) AppleWebKit/537.36 (KHTML, like Gecko) Chrome/88.0.4324.150 Safari/537.36" etag="8YVjtU35VymRT6xyukV-" version="14.4.2" type="github">
  <diagram id="nl9M81HiHT-cFjGvGo2J" name="Page-1">
    <mxGraphModel dx="1422" dy="762" grid="1" gridSize="10" guides="1" tooltips="1" connect="1" arrows="1" fold="1" page="1" pageScale="1" pageWidth="827" pageHeight="1169" math="0" shadow="0">
      <root>
        <mxCell id="0" />
        <mxCell id="1" parent="0" />
        <mxCell id="ImcNfm3JmbuUZxlwPjaD-1" value="单个工分录入" style="swimlane;html=1;childLayout=stackLayout;resizeParent=1;resizeParentMax=0;startSize=20;fillColor=#d5e8d4;strokeColor=#82b366;" vertex="1" parent="1">
          <mxGeometry x="230" y="310" width="930" height="1290" as="geometry" />
        </mxCell>
        <mxCell id="ImcNfm3JmbuUZxlwPjaD-2" value="" style="endArrow=classic;html=1;exitX=1;exitY=0.5;exitDx=0;exitDy=0;entryX=0;entryY=0.5;entryDx=0;entryDy=0;" edge="1" parent="ImcNfm3JmbuUZxlwPjaD-1" source="ImcNfm3JmbuUZxlwPjaD-10" target="ImcNfm3JmbuUZxlwPjaD-15">
          <mxGeometry width="50" height="50" relative="1" as="geometry">
            <mxPoint x="140" y="364" as="sourcePoint" />
            <mxPoint x="270" y="310" as="targetPoint" />
          </mxGeometry>
        </mxCell>
        <mxCell id="ImcNfm3JmbuUZxlwPjaD-3" style="edgeStyle=orthogonalEdgeStyle;rounded=0;orthogonalLoop=1;jettySize=auto;html=1;exitX=0;exitY=0.5;exitDx=0;exitDy=0;entryX=1;entryY=0.5;entryDx=0;entryDy=0;" edge="1" parent="ImcNfm3JmbuUZxlwPjaD-1" source="ImcNfm3JmbuUZxlwPjaD-23" target="ImcNfm3JmbuUZxlwPjaD-12">
          <mxGeometry relative="1" as="geometry">
            <mxPoint x="335" y="1130" as="sourcePoint" />
          </mxGeometry>
        </mxCell>
        <mxCell id="ImcNfm3JmbuUZxlwPjaD-4" style="edgeStyle=orthogonalEdgeStyle;rounded=0;orthogonalLoop=1;jettySize=auto;html=1;exitX=0.5;exitY=1;exitDx=0;exitDy=0;entryX=1;entryY=0.5;entryDx=0;entryDy=0;" edge="1" parent="ImcNfm3JmbuUZxlwPjaD-1" source="ImcNfm3JmbuUZxlwPjaD-23" target="ImcNfm3JmbuUZxlwPjaD-13">
          <mxGeometry relative="1" as="geometry">
            <mxPoint x="405" y="1170" as="sourcePoint" />
          </mxGeometry>
        </mxCell>
        <mxCell id="ImcNfm3JmbuUZxlwPjaD-5" value="激励系统前端" style="swimlane;html=1;startSize=20;fillColor=#f5f5f5;strokeColor=#666666;fontColor=#333333;" vertex="1" parent="ImcNfm3JmbuUZxlwPjaD-1">
          <mxGeometry y="20" width="260" height="1270" as="geometry" />
        </mxCell>
        <mxCell id="ImcNfm3JmbuUZxlwPjaD-6" value="点击【工分录入】按钮" style="rounded=0;whiteSpace=wrap;html=1;fontFamily=Helvetica;fontSize=12;fontColor=#333333;align=center;fillColor=#f5f5f5;strokeColor=#666666;" vertex="1" parent="ImcNfm3JmbuUZxlwPjaD-5">
          <mxGeometry x="70" y="44" width="120" height="60" as="geometry" />
        </mxCell>
        <mxCell id="ImcNfm3JmbuUZxlwPjaD-7" value="选择员工，&lt;br&gt;填写用户输入 任务名称、开始时间、结束时间等信息，&lt;br&gt;&lt;div&gt;&lt;span&gt;点击【提交&lt;/span&gt;&lt;span&gt;】按钮&lt;/span&gt;&lt;/div&gt;" style="rounded=0;whiteSpace=wrap;html=1;fontFamily=Helvetica;fontSize=12;fontColor=#333333;align=center;fillColor=#f5f5f5;strokeColor=#666666;" vertex="1" parent="ImcNfm3JmbuUZxlwPjaD-5">
          <mxGeometry x="70" y="134" width="120" height="76" as="geometry" />
        </mxCell>
        <mxCell id="ImcNfm3JmbuUZxlwPjaD-8" value="" style="endArrow=classic;html=1;entryX=0.5;entryY=0;entryDx=0;entryDy=0;exitX=0.5;exitY=1;exitDx=0;exitDy=0;" edge="1" parent="ImcNfm3JmbuUZxlwPjaD-5" source="ImcNfm3JmbuUZxlwPjaD-7" target="ImcNfm3JmbuUZxlwPjaD-10">
          <mxGeometry width="50" height="50" relative="1" as="geometry">
            <mxPoint x="366" y="184" as="sourcePoint" />
            <mxPoint x="130" y="230" as="targetPoint" />
          </mxGeometry>
        </mxCell>
        <mxCell id="ImcNfm3JmbuUZxlwPjaD-9" style="edgeStyle=orthogonalEdgeStyle;rounded=0;orthogonalLoop=1;jettySize=auto;html=1;exitX=0.5;exitY=1;exitDx=0;exitDy=0;entryX=0.5;entryY=0;entryDx=0;entryDy=0;" edge="1" parent="ImcNfm3JmbuUZxlwPjaD-5" source="ImcNfm3JmbuUZxlwPjaD-10" target="ImcNfm3JmbuUZxlwPjaD-11">
          <mxGeometry relative="1" as="geometry" />
        </mxCell>
        <mxCell id="ImcNfm3JmbuUZxlwPjaD-10" value="对用户输入数据进行校验" style="rhombus;whiteSpace=wrap;html=1;fillColor=#f8cecc;strokeColor=#b85450;" vertex="1" parent="ImcNfm3JmbuUZxlwPjaD-5">
          <mxGeometry x="60" y="250" width="140" height="80" as="geometry" />
        </mxCell>
        <mxCell id="ImcNfm3JmbuUZxlwPjaD-11" value="提示数据校验不通过" style="rounded=0;whiteSpace=wrap;html=1;fontFamily=Helvetica;fontSize=12;fontColor=#333333;align=center;fillColor=#f5f5f5;strokeColor=#666666;" vertex="1" parent="ImcNfm3JmbuUZxlwPjaD-5">
          <mxGeometry x="70" y="375" width="120" height="60" as="geometry" />
        </mxCell>
        <mxCell id="ImcNfm3JmbuUZxlwPjaD-12" value="提示工分录入成功" style="rounded=0;whiteSpace=wrap;html=1;fontFamily=Helvetica;fontSize=12;fontColor=#333333;align=center;fillColor=#f5f5f5;strokeColor=#666666;" vertex="1" parent="ImcNfm3JmbuUZxlwPjaD-5">
          <mxGeometry x="70" y="1080" width="120" height="60" as="geometry" />
        </mxCell>
        <mxCell id="ImcNfm3JmbuUZxlwPjaD-13" value="提示系统异常，请稍后重试" style="rounded=0;whiteSpace=wrap;html=1;fontFamily=Helvetica;fontSize=12;fontColor=#333333;align=center;fillColor=#f5f5f5;strokeColor=#666666;" vertex="1" parent="ImcNfm3JmbuUZxlwPjaD-5">
          <mxGeometry x="70" y="1180" width="120" height="60" as="geometry" />
        </mxCell>
        <mxCell id="ImcNfm3JmbuUZxlwPjaD-14" value="激励系统后端" style="swimlane;html=1;startSize=20;fillColor=#dae8fc;strokeColor=#6c8ebf;" vertex="1" parent="ImcNfm3JmbuUZxlwPjaD-1">
          <mxGeometry x="260" y="20" width="250" height="1270" as="geometry" />
        </mxCell>
        <mxCell id="ImcNfm3JmbuUZxlwPjaD-15" value="对用户输入数据进行校验" style="rhombus;whiteSpace=wrap;html=1;fillColor=#f8cecc;strokeColor=#b85450;" vertex="1" parent="ImcNfm3JmbuUZxlwPjaD-14">
          <mxGeometry x="55" y="250" width="140" height="80" as="geometry" />
        </mxCell>
        <mxCell id="ImcNfm3JmbuUZxlwPjaD-16" style="edgeStyle=orthogonalEdgeStyle;rounded=0;orthogonalLoop=1;jettySize=auto;html=1;exitX=0.5;exitY=1;exitDx=0;exitDy=0;entryX=0.5;entryY=0;entryDx=0;entryDy=0;" edge="1" parent="ImcNfm3JmbuUZxlwPjaD-14" source="ImcNfm3JmbuUZxlwPjaD-17" target="ImcNfm3JmbuUZxlwPjaD-21">
          <mxGeometry relative="1" as="geometry" />
        </mxCell>
        <mxCell id="ImcNfm3JmbuUZxlwPjaD-17" value="根据员工级别计算员工折算后分数" style="rounded=0;whiteSpace=wrap;html=1;fontFamily=Helvetica;fontSize=12;align=center;fillColor=#dae8fc;strokeColor=#6c8ebf;" vertex="1" parent="ImcNfm3JmbuUZxlwPjaD-14">
          <mxGeometry x="40" y="490" width="170" height="60" as="geometry" />
        </mxCell>
        <mxCell id="ImcNfm3JmbuUZxlwPjaD-18" style="edgeStyle=orthogonalEdgeStyle;rounded=0;orthogonalLoop=1;jettySize=auto;html=1;exitX=0.5;exitY=1;exitDx=0;exitDy=0;entryX=0.5;entryY=0;entryDx=0;entryDy=0;" edge="1" parent="ImcNfm3JmbuUZxlwPjaD-14" source="ImcNfm3JmbuUZxlwPjaD-19" target="ImcNfm3JmbuUZxlwPjaD-22">
          <mxGeometry relative="1" as="geometry" />
        </mxCell>
        <mxCell id="ImcNfm3JmbuUZxlwPjaD-19" value="根据总分、员工级别、工作日期计算每日的原始工分和折算后工分" style="rounded=0;whiteSpace=wrap;html=1;fontFamily=Helvetica;fontSize=12;align=center;fillColor=#dae8fc;strokeColor=#6c8ebf;" vertex="1" parent="ImcNfm3JmbuUZxlwPjaD-14">
          <mxGeometry x="40" y="720" width="170" height="60" as="geometry" />
        </mxCell>
        <mxCell id="ImcNfm3JmbuUZxlwPjaD-20" style="edgeStyle=orthogonalEdgeStyle;rounded=0;orthogonalLoop=1;jettySize=auto;html=1;exitX=0.5;exitY=1;exitDx=0;exitDy=0;" edge="1" parent="ImcNfm3JmbuUZxlwPjaD-14" source="ImcNfm3JmbuUZxlwPjaD-21" target="ImcNfm3JmbuUZxlwPjaD-19">
          <mxGeometry relative="1" as="geometry" />
        </mxCell>
        <mxCell id="ImcNfm3JmbuUZxlwPjaD-21" value="根据任务开始时间和任务结束时间查询任务工作日期列表" style="rounded=0;whiteSpace=wrap;html=1;fontFamily=Helvetica;fontSize=12;align=center;fillColor=#dae8fc;strokeColor=#6c8ebf;" vertex="1" parent="ImcNfm3JmbuUZxlwPjaD-14">
          <mxGeometry x="40" y="600" width="170" height="60" as="geometry" />
        </mxCell>
        <mxCell id="ImcNfm3JmbuUZxlwPjaD-22" value="根据每日工分计算每月的原始工分和折算后工分" style="rounded=0;whiteSpace=wrap;html=1;fontFamily=Helvetica;fontSize=12;align=center;fillColor=#dae8fc;strokeColor=#6c8ebf;" vertex="1" parent="ImcNfm3JmbuUZxlwPjaD-14">
          <mxGeometry x="40" y="830" width="170" height="60" as="geometry" />
        </mxCell>
        <mxCell id="ImcNfm3JmbuUZxlwPjaD-23" value="事务提交结果" style="rhombus;whiteSpace=wrap;html=1;fillColor=#f8cecc;strokeColor=#b85450;" vertex="1" parent="ImcNfm3JmbuUZxlwPjaD-14">
          <mxGeometry x="55" y="1070" width="140" height="80" as="geometry" />
        </mxCell>
        <mxCell id="ImcNfm3JmbuUZxlwPjaD-24" value="激励系统DB" style="swimlane;html=1;startSize=20;fillColor=#e1d5e7;strokeColor=#9673a6;" vertex="1" parent="ImcNfm3JmbuUZxlwPjaD-1">
          <mxGeometry x="510" y="20" width="210" height="1270" as="geometry" />
        </mxCell>
        <mxCell id="ImcNfm3JmbuUZxlwPjaD-25" style="edgeStyle=orthogonalEdgeStyle;rounded=0;orthogonalLoop=1;jettySize=auto;html=1;exitX=0.5;exitY=1;exitDx=0;exitDy=0;" edge="1" parent="ImcNfm3JmbuUZxlwPjaD-24" source="ImcNfm3JmbuUZxlwPjaD-26" target="ImcNfm3JmbuUZxlwPjaD-28">
          <mxGeometry relative="1" as="geometry" />
        </mxCell>
        <mxCell id="ImcNfm3JmbuUZxlwPjaD-26" value="新增一条TB_KPICTL_TASK记录" style="rounded=0;whiteSpace=wrap;html=1;fontFamily=Helvetica;fontSize=12;align=center;fillColor=#e1d5e7;strokeColor=#9673a6;" vertex="1" parent="ImcNfm3JmbuUZxlwPjaD-24">
          <mxGeometry x="20" y="580" width="170" height="60" as="geometry" />
        </mxCell>
        <mxCell id="ImcNfm3JmbuUZxlwPjaD-27" style="edgeStyle=orthogonalEdgeStyle;rounded=0;orthogonalLoop=1;jettySize=auto;html=1;exitX=0.5;exitY=1;exitDx=0;exitDy=0;entryX=0.5;entryY=0;entryDx=0;entryDy=0;" edge="1" parent="ImcNfm3JmbuUZxlwPjaD-24" source="ImcNfm3JmbuUZxlwPjaD-28" target="ImcNfm3JmbuUZxlwPjaD-30">
          <mxGeometry relative="1" as="geometry" />
        </mxCell>
        <mxCell id="ImcNfm3JmbuUZxlwPjaD-28" value="根据日期新增TB_KPICTL_DAY_TASK_SCORE记录" style="rounded=0;whiteSpace=wrap;html=1;fontFamily=Helvetica;fontSize=12;align=center;fillColor=#e1d5e7;strokeColor=#9673a6;" vertex="1" parent="ImcNfm3JmbuUZxlwPjaD-24">
          <mxGeometry x="20" y="690" width="170" height="60" as="geometry" />
        </mxCell>
        <mxCell id="ImcNfm3JmbuUZxlwPjaD-29" style="edgeStyle=orthogonalEdgeStyle;rounded=0;orthogonalLoop=1;jettySize=auto;html=1;exitX=0.5;exitY=1;exitDx=0;exitDy=0;entryX=0.5;entryY=0;entryDx=0;entryDy=0;" edge="1" parent="ImcNfm3JmbuUZxlwPjaD-24" source="ImcNfm3JmbuUZxlwPjaD-30" target="ImcNfm3JmbuUZxlwPjaD-32">
          <mxGeometry relative="1" as="geometry" />
        </mxCell>
        <mxCell id="ImcNfm3JmbuUZxlwPjaD-30" value="根据日期修改（新增）TB_KPICTL_DAY_SCORE记录" style="rounded=0;whiteSpace=wrap;html=1;fontFamily=Helvetica;fontSize=12;align=center;fillColor=#e1d5e7;strokeColor=#9673a6;" vertex="1" parent="ImcNfm3JmbuUZxlwPjaD-24">
          <mxGeometry x="20" y="810" width="170" height="60" as="geometry" />
        </mxCell>
        <mxCell id="ImcNfm3JmbuUZxlwPjaD-31" style="edgeStyle=orthogonalEdgeStyle;rounded=0;orthogonalLoop=1;jettySize=auto;html=1;exitX=0.5;exitY=1;exitDx=0;exitDy=0;entryX=0.5;entryY=0;entryDx=0;entryDy=0;" edge="1" parent="ImcNfm3JmbuUZxlwPjaD-24" source="ImcNfm3JmbuUZxlwPjaD-32" target="ImcNfm3JmbuUZxlwPjaD-35">
          <mxGeometry relative="1" as="geometry" />
        </mxCell>
        <mxCell id="ImcNfm3JmbuUZxlwPjaD-32" value="根据月份修改（新增）TB_KPICTL_MONTH_SCORE记录" style="rounded=0;whiteSpace=wrap;html=1;fontFamily=Helvetica;fontSize=12;align=center;fillColor=#e1d5e7;strokeColor=#9673a6;" vertex="1" parent="ImcNfm3JmbuUZxlwPjaD-24">
          <mxGeometry x="20" y="920" width="170" height="50" as="geometry" />
        </mxCell>
        <mxCell id="ImcNfm3JmbuUZxlwPjaD-33" style="edgeStyle=orthogonalEdgeStyle;rounded=0;orthogonalLoop=1;jettySize=auto;html=1;exitX=0.5;exitY=1;exitDx=0;exitDy=0;" edge="1" parent="ImcNfm3JmbuUZxlwPjaD-24" source="ImcNfm3JmbuUZxlwPjaD-34" target="ImcNfm3JmbuUZxlwPjaD-26">
          <mxGeometry relative="1" as="geometry" />
        </mxCell>
        <mxCell id="ImcNfm3JmbuUZxlwPjaD-34" value="开始事务" style="rounded=0;whiteSpace=wrap;html=1;fontFamily=Helvetica;fontSize=12;align=center;fillColor=#e1d5e7;strokeColor=#9673a6;" vertex="1" parent="ImcNfm3JmbuUZxlwPjaD-24">
          <mxGeometry x="20" y="500" width="170" height="30" as="geometry" />
        </mxCell>
        <mxCell id="ImcNfm3JmbuUZxlwPjaD-35" value="提交事务" style="rounded=0;whiteSpace=wrap;html=1;fontFamily=Helvetica;fontSize=12;align=center;fillColor=#e1d5e7;strokeColor=#9673a6;" vertex="1" parent="ImcNfm3JmbuUZxlwPjaD-24">
          <mxGeometry x="20" y="1020" width="170" height="30" as="geometry" />
        </mxCell>
        <mxCell id="ImcNfm3JmbuUZxlwPjaD-36" value="" style="endArrow=classic;html=1;entryX=0;entryY=0.5;entryDx=0;entryDy=0;" edge="1" parent="ImcNfm3JmbuUZxlwPjaD-1" source="ImcNfm3JmbuUZxlwPjaD-6" target="ImcNfm3JmbuUZxlwPjaD-40">
          <mxGeometry width="50" height="50" relative="1" as="geometry">
            <mxPoint x="326" y="24" as="sourcePoint" />
            <mxPoint x="575" y="94" as="targetPoint" />
          </mxGeometry>
        </mxCell>
        <mxCell id="ImcNfm3JmbuUZxlwPjaD-37" value="" style="endArrow=classic;html=1;exitX=0.5;exitY=1;exitDx=0;exitDy=0;entryX=1;entryY=0.5;entryDx=0;entryDy=0;rounded=0;" edge="1" parent="ImcNfm3JmbuUZxlwPjaD-1" source="ImcNfm3JmbuUZxlwPjaD-40" target="ImcNfm3JmbuUZxlwPjaD-7">
          <mxGeometry width="50" height="50" relative="1" as="geometry">
            <mxPoint x="615" y="124" as="sourcePoint" />
            <mxPoint x="106" y="184" as="targetPoint" />
            <Array as="points">
              <mxPoint x="825" y="190" />
            </Array>
          </mxGeometry>
        </mxCell>
        <mxCell id="ImcNfm3JmbuUZxlwPjaD-38" value="" style="endArrow=classic;html=1;exitX=0.5;exitY=1;exitDx=0;exitDy=0;entryX=1;entryY=0.5;entryDx=0;entryDy=0;rounded=0;" edge="1" parent="ImcNfm3JmbuUZxlwPjaD-1" source="ImcNfm3JmbuUZxlwPjaD-15" target="ImcNfm3JmbuUZxlwPjaD-11">
          <mxGeometry width="50" height="50" relative="1" as="geometry">
            <mxPoint x="321" y="394" as="sourcePoint" />
            <mxPoint x="320" y="430" as="targetPoint" />
            <Array as="points">
              <mxPoint x="385" y="425" />
            </Array>
          </mxGeometry>
        </mxCell>
        <mxCell id="ImcNfm3JmbuUZxlwPjaD-39" value="组织机构后端" style="swimlane;html=1;startSize=20;fillColor=#fff2cc;strokeColor=#d6b656;" vertex="1" parent="ImcNfm3JmbuUZxlwPjaD-1">
          <mxGeometry x="720" y="20" width="210" height="1270" as="geometry" />
        </mxCell>
        <mxCell id="ImcNfm3JmbuUZxlwPjaD-40" value="查询所有员工" style="rounded=0;whiteSpace=wrap;html=1;fontFamily=Helvetica;fontSize=12;align=center;fillColor=#fff2cc;strokeColor=#d6b656;" vertex="1" parent="ImcNfm3JmbuUZxlwPjaD-39">
          <mxGeometry x="65" y="44" width="80" height="60" as="geometry" />
        </mxCell>
        <mxCell id="ImcNfm3JmbuUZxlwPjaD-41" value="查询员工信息" style="rounded=0;whiteSpace=wrap;html=1;fontFamily=Helvetica;fontSize=12;align=center;fillColor=#fff2cc;strokeColor=#d6b656;" vertex="1" parent="ImcNfm3JmbuUZxlwPjaD-39">
          <mxGeometry x="65" y="257.5" width="80" height="65" as="geometry" />
        </mxCell>
        <mxCell id="ImcNfm3JmbuUZxlwPjaD-42" value="" style="endArrow=classic;html=1;exitX=0.5;exitY=1;exitDx=0;exitDy=0;entryX=0.5;entryY=0;entryDx=0;entryDy=0;rounded=0;" edge="1" parent="ImcNfm3JmbuUZxlwPjaD-1" source="ImcNfm3JmbuUZxlwPjaD-41" target="ImcNfm3JmbuUZxlwPjaD-17">
          <mxGeometry width="50" height="50" relative="1" as="geometry">
            <mxPoint x="395" y="360" as="sourcePoint" />
            <mxPoint x="200" y="435" as="targetPoint" />
            <Array as="points">
              <mxPoint x="825" y="390" />
              <mxPoint x="825" y="450" />
              <mxPoint x="480" y="450" />
              <mxPoint x="385" y="450" />
            </Array>
          </mxGeometry>
        </mxCell>
        <mxCell id="ImcNfm3JmbuUZxlwPjaD-43" style="edgeStyle=orthogonalEdgeStyle;rounded=0;orthogonalLoop=1;jettySize=auto;html=1;exitX=1;exitY=0.5;exitDx=0;exitDy=0;entryX=0;entryY=0.5;entryDx=0;entryDy=0;" edge="1" parent="ImcNfm3JmbuUZxlwPjaD-1" source="ImcNfm3JmbuUZxlwPjaD-15" target="ImcNfm3JmbuUZxlwPjaD-41">
          <mxGeometry relative="1" as="geometry" />
        </mxCell>
        <mxCell id="ImcNfm3JmbuUZxlwPjaD-44" style="edgeStyle=orthogonalEdgeStyle;rounded=0;orthogonalLoop=1;jettySize=auto;html=1;exitX=1;exitY=0.5;exitDx=0;exitDy=0;entryX=0;entryY=0.5;entryDx=0;entryDy=0;" edge="1" parent="ImcNfm3JmbuUZxlwPjaD-1" source="ImcNfm3JmbuUZxlwPjaD-22" target="ImcNfm3JmbuUZxlwPjaD-34">
          <mxGeometry relative="1" as="geometry" />
        </mxCell>
        <mxCell id="ImcNfm3JmbuUZxlwPjaD-45" style="edgeStyle=orthogonalEdgeStyle;rounded=0;orthogonalLoop=1;jettySize=auto;html=1;exitX=0.5;exitY=1;exitDx=0;exitDy=0;entryX=1;entryY=0.5;entryDx=0;entryDy=0;" edge="1" parent="ImcNfm3JmbuUZxlwPjaD-1" source="ImcNfm3JmbuUZxlwPjaD-35" target="ImcNfm3JmbuUZxlwPjaD-23">
          <mxGeometry relative="1" as="geometry" />
        </mxCell>
        <mxCell id="ImcNfm3JmbuUZxlwPjaD-46" style="edgeStyle=orthogonalEdgeStyle;rounded=0;orthogonalLoop=1;jettySize=auto;html=1;entryX=0;entryY=0.5;entryDx=0;entryDy=0;" edge="1" parent="1" source="ImcNfm3JmbuUZxlwPjaD-47" target="ImcNfm3JmbuUZxlwPjaD-6">
          <mxGeometry relative="1" as="geometry" />
        </mxCell>
        <mxCell id="ImcNfm3JmbuUZxlwPjaD-47" value="用户" style="shape=umlActor;verticalLabelPosition=bottom;verticalAlign=top;html=1;outlineConnect=0;" vertex="1" parent="1">
          <mxGeometry x="150" y="374" width="30" height="60" as="geometry" />
        </mxCell>
      </root>
    </mxGraphModel>
  </diagram>
</mxfile>
